<svg xmlns="http://www.w3.org/2000/svg" xmlns:xlink="http://www.w3.org/1999/xlink" width="500" zoomAndPan="magnify" viewBox="0 0 375 374.999991" height="500" preserveAspectRatio="xMidYMid meet" version="1.2"><defs><clipPath id="16037f4980"><path d="M 234.199219 131.402344 L 285.191406 131.402344 L 285.191406 182.398438 L 234.199219 182.398438 Z M 234.199219 131.402344 "/></clipPath><clipPath id="3aa67c0f6b"><path d="M 259.695312 131.402344 C 245.613281 131.402344 234.199219 142.820312 234.199219 156.902344 C 234.199219 170.984375 245.613281 182.398438 259.695312 182.398438 C 273.777344 182.398438 285.191406 170.984375 285.191406 156.902344 C 285.191406 142.820312 273.777344 131.402344 259.695312 131.402344 Z M 259.695312 131.402344 "/></clipPath><clipPath id="ee4a33c506"><path d="M 128.933594 131.402344 L 179.929688 131.402344 L 179.929688 182.398438 L 128.933594 182.398438 Z M 128.933594 131.402344 "/></clipPath><clipPath id="28fe41aa36"><path d="M 154.429688 131.402344 C 140.347656 131.402344 128.933594 142.820312 128.933594 156.902344 C 128.933594 170.984375 140.347656 182.398438 154.429688 182.398438 C 168.511719 182.398438 179.929688 170.984375 179.929688 156.902344 C 179.929688 142.820312 168.511719 131.402344 154.429688 131.402344 Z M 154.429688 131.402344 "/></clipPath></defs><g id="4a2450af19"><g style="fill:#ffffff;fill-opacity:1;"><g transform="translate(15.633415, 306.476437)"><path style="stroke:none" d="M 120.625 -236.8125 L 205.015625 -236.8125 L 205.015625 -183.328125 L 139.65625 -183.328125 C 126.96875 -183.328125 115.523438 -180.253906 105.328125 -174.109375 C 95.128906 -167.972656 87.109375 -160.097656 81.265625 -150.484375 C 75.421875 -140.878906 72.5 -130.925781 72.5 -120.625 C 72.5 -107.945312 75.367188 -96.507812 81.109375 -86.3125 C 86.859375 -76.113281 94.832031 -68.09375 105.03125 -62.25 C 115.226562 -56.40625 126.769531 -53.484375 139.65625 -53.484375 L 205.015625 -53.484375 L 205.015625 0 L 120.03125 0 C 103.195312 0 87.695312 -3.117188 73.53125 -9.359375 C 59.375 -15.597656 47.144531 -24.210938 36.84375 -35.203125 C 26.539062 -46.203125 18.515625 -58.976562 12.765625 -73.53125 C 7.023438 -88.09375 4.15625 -103.789062 4.15625 -120.625 C 4.15625 -136.28125 7.320312 -151.085938 13.65625 -165.046875 C 20 -179.015625 28.617188 -191.394531 39.515625 -202.1875 C 50.410156 -212.988281 62.835938 -221.457031 76.796875 -227.59375 C 90.765625 -233.738281 105.375 -236.8125 120.625 -236.8125 Z M 120.625 -236.8125 "/></g></g><g style="fill:#8c52ff;fill-opacity:1;"><g transform="translate(211.022101, 306.476437)"><path style="stroke:none" d="M 22.28125 -66.5625 L 22.28125 -120.03125 L 57.34375 -120.03125 C 66.0625 -120.03125 73.640625 -122.65625 80.078125 -127.90625 C 86.515625 -133.15625 89.734375 -140.832031 89.734375 -150.9375 C 89.734375 -157.675781 88.046875 -163.46875 84.671875 -168.3125 C 81.304688 -173.164062 77.097656 -176.878906 72.046875 -179.453125 C 66.992188 -182.035156 61.796875 -183.328125 56.453125 -183.328125 L 5.9375 -183.328125 L 5.9375 -236.8125 L 75.46875 -236.8125 C 86.757812 -236.8125 97.40625 -234.628906 107.40625 -230.265625 C 117.414062 -225.910156 126.179688 -219.867188 133.703125 -212.140625 C 141.234375 -204.421875 147.175781 -195.609375 151.53125 -185.703125 C 155.894531 -175.796875 158.078125 -165.195312 158.078125 -153.90625 C 158.078125 -136.082031 154.554688 -120.632812 147.515625 -107.5625 C 140.484375 -94.488281 130.875 -84.382812 118.6875 -77.25 C 106.507812 -70.125 92.695312 -66.5625 77.25 -66.5625 Z M 84.390625 -53.484375 L 84.390625 0 L 22.28125 0 L 22.28125 -53.484375 Z M 84.390625 -53.484375 "/></g></g><g clip-rule="nonzero" clip-path="url(#16037f4980)"><g clip-rule="nonzero" clip-path="url(#3aa67c0f6b)"><path style=" stroke:none;fill-rule:nonzero;fill:#5e17eb;fill-opacity:1;" d="M 234.199219 131.402344 L 285.191406 131.402344 L 285.191406 182.398438 L 234.199219 182.398438 Z M 234.199219 131.402344 "/></g></g><g clip-rule="nonzero" clip-path="url(#ee4a33c506)"><g clip-rule="nonzero" clip-path="url(#28fe41aa36)"><path style=" stroke:none;fill-rule:nonzero;fill:#5e17eb;fill-opacity:1;" d="M 128.933594 131.402344 L 179.929688 131.402344 L 179.929688 182.398438 L 128.933594 182.398438 Z M 128.933594 131.402344 "/></g></g></g></svg>